<?xml version="1.0" standalone="no"?>
<!-- Generator: Gravit.io -->
<svg xmlns="http://www.w3.org/2000/svg" xmlns:xlink="http://www.w3.org/1999/xlink" style="isolation:isolate" viewBox="0 0 65.995 83.981" width="auto" height="100%">
    <defs>
        <clipPath id="_clipPath_ShooP4IYjeSCCxhSpxPVZYxShZ9EQwql">
            <rect width="65.995" height="83.981" />
        </clipPath>
    </defs>
    <g clip-path="url(#_clipPath_ShooP4IYjeSCCxhSpxPVZYxShZ9EQwql)">
        <g>
            <g>
                <clipPath id="_clipPath_XzgOTH2RVBEVcAq0B3ESG7L5TCUTz13o">
                    <path d=" M 0.432 53.963 C 1.287 60.977 8.369 59.347 10.324 58.757 L 10.324 58.757 C 8.963 58.907 5.164 59.044 2.98 56.314 L 2.98 56.314 C 2.968 56.301 2.959 56.291 2.953 56.284 L 2.953 56.284 C 2.962 56.294 2.972 56.304 2.98 56.314 L 2.98 56.314 C 3.266 56.626 5.417 58.779 9.618 58.571 L 9.618 58.571 C 8.418 58.486 6.026 58.107 4.624 56.481 L 4.624 56.481 C 4.624 56.481 6.867 58.449 10.132 58.293 L 10.132 58.293 C 7.962 57.229 7.664 55.601 5.352 54.479 L 5.352 54.479 C 4.32 53.978 3.043 53.856 2.049 53.856 L 2.049 53.856 C 1.116 53.856 0.432 53.963 0.432 53.963 M 2.946 56.275 C 2.946 56.276 2.946 56.276 2.946 56.276 L 2.946 56.276 C 2.946 56.276 2.946 56.275 2.946 56.275 Z " fill="rgb(255,255,255)" />
                </clipPath>
                <g clip-path="url(#_clipPath_XzgOTH2RVBEVcAq0B3ESG7L5TCUTz13o)">
                    <g>
                        <g>
                            <g>
                                <linearGradient id="_lgradient_0" x1="0.4999922284826104" y1="7.73762661482794" x2="0.49999200828961765" y2="2.664512189410667" gradientTransform="matrix(9.893,0,0,-5.492,0.432,59.349)" gradientUnits="userSpaceOnUse">
                                    <stop offset="0%" stop-opacity="1" style="stop-color:rgb(182,109,41)" />
                                    <stop offset="6.3377%" stop-opacity="1" style="stop-color:rgb(182,109,41)" />
                                    <stop offset="38.500499999999995%" stop-opacity="1" style="stop-color:rgb(255,198,59)" />
                                    <stop offset="70.7271%" stop-opacity="1" style="stop-color:rgb(255,198,59)" />
                                    <stop offset="95.0574%" stop-opacity="1" style="stop-color:rgb(182,109,41)" />
                                    <stop offset="100%" stop-opacity="1" style="stop-color:rgb(182,109,41)" />
                                </linearGradient>
                                <path d=" M 0.432 53.963 C 1.287 60.977 8.369 59.347 10.324 58.757 L 10.324 58.757 C 8.963 58.907 5.164 59.044 2.98 56.314 L 2.98 56.314 C 2.968 56.301 2.959 56.291 2.953 56.284 L 2.953 56.284 C 2.962 56.294 2.972 56.304 2.98 56.314 L 2.98 56.314 C 3.266 56.626 5.417 58.779 9.618 58.571 L 9.618 58.571 C 8.418 58.486 6.026 58.107 4.624 56.481 L 4.624 56.481 C 4.624 56.481 6.867 58.449 10.132 58.293 L 10.132 58.293 C 7.962 57.229 7.664 55.601 5.352 54.479 L 5.352 54.479 C 4.32 53.978 3.043 53.856 2.049 53.856 L 2.049 53.856 C 1.116 53.856 0.432 53.963 0.432 53.963 M 2.946 56.275 C 2.946 56.276 2.946 56.276 2.946 56.276 L 2.946 56.276 C 2.946 56.276 2.946 56.275 2.946 56.275 Z " fill="url(#_lgradient_0)" />
                            </g>
                        </g>
                    </g>
                </g>
            </g>
            <g>
                <clipPath id="_clipPath_MOeeNDjoDXn9WReMrposwt1r8i85gQHX">
                    <path d=" M 5.201 49.877 C 6.235 55.05 10.769 57.146 15.465 58.378 L 15.465 58.378 C 19.348 57.627 21.611 58.103 21.611 58.103 L 21.611 58.103 C 18.478 58.057 16.332 58.596 16.332 58.596 L 16.332 58.596 C 15.11 58.864 13.847 59.225 12.548 59.688 L 12.548 59.688 C 5.283 62.277 0 59.744 0 59.744 L 0 59.744 C 4.898 65.545 11.735 66.807 19.839 62.485 L 19.839 62.485 C 27.046 58.643 32.746 62.28 32.746 62.28 L 32.746 62.28 C 32.746 62.28 30.502 58.313 23.402 57.022 L 23.402 57.022 C 16.118 55.696 11.906 50.896 16.408 47.792 L 16.408 47.792 C 16.408 47.792 12.059 45.974 10.479 50.402 L 10.479 50.402 C 10.479 50.402 10.552 49.194 11.731 48.029 L 11.731 48.029 C 11.832 47.516 12.393 45.549 15.131 44.703 L 15.131 44.703 C 17.364 44.012 19.057 44.262 20.097 44.6 L 20.097 44.6 C 16.896 42.222 12.632 44.239 12.632 44.239 L 12.632 44.239 C 17.913 41.235 21.285 45.15 21.285 45.15 L 21.285 45.15 C 21.285 45.15 20.902 39.261 14.895 38.254 L 14.895 38.254 C 14.586 38.202 14.264 38.176 13.934 38.176 L 13.934 38.176 C 9.563 38.176 3.761 42.673 5.201 49.877" fill="rgb(255,255,255)" />
                </clipPath>
                <g clip-path="url(#_clipPath_MOeeNDjoDXn9WReMrposwt1r8i85gQHX)">
                    <g>
                        <g>
                            <g>
                                <linearGradient id="_lgradient_1" x1="0.5000002934788983" y1="1.7933399661676073" x2="0.5000002269570145" y2="0.2607156804217001" gradientTransform="matrix(32.746,0,0,-26.882,0,65.058)" gradientUnits="userSpaceOnUse">
                                    <stop offset="0%" stop-opacity="1" style="stop-color:rgb(182,109,41)" />
                                    <stop offset="6.3377%" stop-opacity="1" style="stop-color:rgb(182,109,41)" />
                                    <stop offset="38.500499999999995%" stop-opacity="1" style="stop-color:rgb(255,198,59)" />
                                    <stop offset="70.7271%" stop-opacity="1" style="stop-color:rgb(255,198,59)" />
                                    <stop offset="95.0574%" stop-opacity="1" style="stop-color:rgb(182,109,41)" />
                                    <stop offset="100%" stop-opacity="1" style="stop-color:rgb(182,109,41)" />
                                </linearGradient>
                                <path d=" M 5.201 49.877 C 6.235 55.05 10.769 57.146 15.465 58.378 L 15.465 58.378 C 19.348 57.627 21.611 58.103 21.611 58.103 L 21.611 58.103 C 18.478 58.057 16.332 58.596 16.332 58.596 L 16.332 58.596 C 15.11 58.864 13.847 59.225 12.548 59.688 L 12.548 59.688 C 5.283 62.277 0 59.744 0 59.744 L 0 59.744 C 4.898 65.545 11.735 66.807 19.839 62.485 L 19.839 62.485 C 27.046 58.643 32.746 62.28 32.746 62.28 L 32.746 62.28 C 32.746 62.28 30.502 58.313 23.402 57.022 L 23.402 57.022 C 16.118 55.696 11.906 50.896 16.408 47.792 L 16.408 47.792 C 16.408 47.792 12.059 45.974 10.479 50.402 L 10.479 50.402 C 10.479 50.402 10.552 49.194 11.731 48.029 L 11.731 48.029 C 11.832 47.516 12.393 45.549 15.131 44.703 L 15.131 44.703 C 17.364 44.012 19.057 44.262 20.097 44.6 L 20.097 44.6 C 16.896 42.222 12.632 44.239 12.632 44.239 L 12.632 44.239 C 17.913 41.235 21.285 45.15 21.285 45.15 L 21.285 45.15 C 21.285 45.15 20.902 39.261 14.895 38.254 L 14.895 38.254 C 14.586 38.202 14.264 38.176 13.934 38.176 L 13.934 38.176 C 9.563 38.176 3.761 42.673 5.201 49.877" fill="url(#_lgradient_1)" />
                            </g>
                        </g>
                    </g>
                </g>
            </g>
            <g>
                <clipPath id="_clipPath_hUMP7R6XbBFpZqYyRm9Alx68RzzvQirx">
                    <path d=" M 20.605 63.079 C 15.066 65.832 13.543 65.597 13.543 65.597 L 13.543 65.597 C 13.543 65.597 17.674 68.464 22.086 65.944 L 22.086 65.944 C 25.394 64.055 27.176 62.484 31.569 62.496 L 31.569 62.496 C 26.732 61.21 23.003 63.427 23.003 63.427 L 23.003 63.427 C 27.429 60.504 32.463 62.52 32.463 62.52 L 32.463 62.52 C 32.463 62.52 30.474 61.424 27.33 61.424 L 27.33 61.424 C 25.444 61.424 23.142 61.818 20.605 63.079 Z " fill="rgb(255,255,255)" />
                </clipPath>
                <g clip-path="url(#_clipPath_hUMP7R6XbBFpZqYyRm9Alx68RzzvQirx)">
                    <g>
                        <g>
                            <g>
                                <linearGradient id="_lgradient_2" x1="0.5000049099282133" y1="9.021635571129382" x2="0.500004794798862" y2="6.369124398692499" gradientTransform="matrix(18.92,0,0,-5.557,13.543,66.981)" gradientUnits="userSpaceOnUse">
                                    <stop offset="0%" stop-opacity="1" style="stop-color:rgb(182,109,41)" />
                                    <stop offset="6.3377%" stop-opacity="1" style="stop-color:rgb(182,109,41)" />
                                    <stop offset="38.500499999999995%" stop-opacity="1" style="stop-color:rgb(255,198,59)" />
                                    <stop offset="70.7271%" stop-opacity="1" style="stop-color:rgb(255,198,59)" />
                                    <stop offset="95.0574%" stop-opacity="1" style="stop-color:rgb(182,109,41)" />
                                    <stop offset="100%" stop-opacity="1" style="stop-color:rgb(182,109,41)" />
                                </linearGradient>
                                <path d=" M 20.605 63.079 C 15.066 65.832 13.543 65.597 13.543 65.597 L 13.543 65.597 C 13.543 65.597 17.674 68.464 22.086 65.944 L 22.086 65.944 C 25.394 64.055 27.176 62.484 31.569 62.496 L 31.569 62.496 C 26.732 61.21 23.003 63.427 23.003 63.427 L 23.003 63.427 C 27.429 60.504 32.463 62.52 32.463 62.52 L 32.463 62.52 C 32.463 62.52 30.474 61.424 27.33 61.424 L 27.33 61.424 C 25.444 61.424 23.142 61.818 20.605 63.079 Z " fill="url(#_lgradient_2)" />
                            </g>
                        </g>
                    </g>
                </g>
            </g>
        </g>
        <g>
            <g>
                <clipPath id="_clipPath_1tBO7VhknJ9FT9fBup7z57VgM8WPMOoP">
                    <path d=" M 60.642 54.479 C 58.331 55.601 58.033 57.229 55.863 58.293 L 55.863 58.293 C 59.127 58.449 61.37 56.481 61.37 56.481 L 61.37 56.481 C 59.969 58.107 57.577 58.486 56.376 58.571 L 56.376 58.571 C 60.578 58.779 62.728 56.626 63.014 56.314 L 63.014 56.314 C 60.831 59.044 57.03 58.907 55.669 58.757 L 55.669 58.757 C 57.625 59.347 64.708 60.977 65.563 53.963 L 65.563 53.963 C 65.563 53.963 64.878 53.856 63.946 53.856 L 63.946 53.856 C 62.951 53.856 61.674 53.978 60.642 54.479 Z  M 63.048 56.275 C 63.048 56.275 63.048 56.275 63.048 56.275 L 63.048 56.275 C 63.048 56.275 63.048 56.275 63.048 56.275 Z  M 63.038 56.288 C 63.032 56.295 63.024 56.304 63.014 56.314 L 63.014 56.314 C 63.021 56.305 63.03 56.297 63.038 56.288 Z " fill="rgb(255,255,255)" />
                </clipPath>
                <g clip-path="url(#_clipPath_1tBO7VhknJ9FT9fBup7z57VgM8WPMOoP)">
                    <g>
                        <g>
                            <g>
                                <linearGradient id="_lgradient_3" x1="0.5000087421078181" y1="7.737626614827963" x2="0.5000085219362145" y2="2.665004981732812" gradientTransform="matrix(9.894,0,0,-5.492,55.669,59.349)" gradientUnits="userSpaceOnUse">
                                    <stop offset="0%" stop-opacity="1" style="stop-color:rgb(182,109,41)" />
                                    <stop offset="6.3377%" stop-opacity="1" style="stop-color:rgb(182,109,41)" />
                                    <stop offset="38.500499999999995%" stop-opacity="1" style="stop-color:rgb(255,198,59)" />
                                    <stop offset="70.7271%" stop-opacity="1" style="stop-color:rgb(255,198,59)" />
                                    <stop offset="95.0574%" stop-opacity="1" style="stop-color:rgb(182,109,41)" />
                                    <stop offset="100%" stop-opacity="1" style="stop-color:rgb(182,109,41)" />
                                </linearGradient>
                                <path d=" M 60.642 54.479 C 58.331 55.601 58.033 57.229 55.863 58.293 L 55.863 58.293 C 59.127 58.449 61.37 56.481 61.37 56.481 L 61.37 56.481 C 59.969 58.107 57.577 58.486 56.376 58.571 L 56.376 58.571 C 60.578 58.779 62.728 56.626 63.014 56.314 L 63.014 56.314 C 60.831 59.044 57.03 58.907 55.669 58.757 L 55.669 58.757 C 57.625 59.347 64.708 60.977 65.563 53.963 L 65.563 53.963 C 65.563 53.963 64.878 53.856 63.946 53.856 L 63.946 53.856 C 62.951 53.856 61.674 53.978 60.642 54.479 Z  M 63.048 56.275 C 63.048 56.275 63.048 56.275 63.048 56.275 L 63.048 56.275 C 63.048 56.275 63.048 56.275 63.048 56.275 Z  M 63.038 56.288 C 63.032 56.295 63.024 56.304 63.014 56.314 L 63.014 56.314 C 63.021 56.305 63.03 56.297 63.038 56.288 Z " fill="url(#_lgradient_3)" />
                            </g>
                        </g>
                    </g>
                </g>
            </g>
            <g>
                <clipPath id="_clipPath_Khk8VYNsFNA2ePeHyUGMAOzgVB3lF2yT">
                    <path d=" M 51.099 38.254 C 45.093 39.261 44.71 45.15 44.71 45.15 L 44.71 45.15 C 44.71 45.15 48.082 41.235 53.362 44.239 L 53.362 44.239 C 53.362 44.239 49.098 42.222 45.896 44.601 L 45.896 44.601 C 46.938 44.262 48.631 44.012 50.864 44.703 L 50.864 44.703 C 53.602 45.549 54.162 47.515 54.263 48.028 L 54.263 48.028 C 55.442 49.194 55.516 50.402 55.516 50.402 L 55.516 50.402 C 53.936 45.974 49.586 47.792 49.586 47.792 L 49.586 47.792 C 54.089 50.896 49.876 55.696 42.593 57.022 L 42.593 57.022 C 35.492 58.313 33.249 62.28 33.249 62.28 L 33.249 62.28 C 33.249 62.28 38.949 58.643 46.155 62.485 L 46.155 62.485 C 54.259 66.807 61.096 65.545 65.995 59.744 L 65.995 59.744 C 65.995 59.744 60.711 62.277 53.446 59.688 L 53.446 59.688 C 52.146 59.225 50.884 58.864 49.661 58.596 L 49.661 58.596 C 49.661 58.596 47.516 58.057 44.384 58.103 L 44.384 58.103 C 44.384 58.103 46.646 57.627 50.53 58.378 L 50.53 58.378 C 55.225 57.146 59.759 55.05 60.793 49.877 L 60.793 49.877 C 62.233 42.674 56.432 38.177 52.06 38.176 L 52.06 38.176 C 51.731 38.176 51.409 38.202 51.099 38.254" fill="rgb(255,255,255)" />
                </clipPath>
                <g clip-path="url(#_clipPath_Khk8VYNsFNA2ePeHyUGMAOzgVB3lF2yT)">
                    <g>
                        <g>
                            <g>
                                <linearGradient id="_lgradient_4" x1="0.5000043043571827" y1="1.7933399673091142" x2="0.5000042378352987" y2="0.26071567644743254" gradientTransform="matrix(32.746,0,0,-26.882,33.249,65.058)" gradientUnits="userSpaceOnUse">
                                    <stop offset="0%" stop-opacity="1" style="stop-color:rgb(182,109,41)" />
                                    <stop offset="6.3377%" stop-opacity="1" style="stop-color:rgb(182,109,41)" />
                                    <stop offset="38.500499999999995%" stop-opacity="1" style="stop-color:rgb(255,198,59)" />
                                    <stop offset="70.7271%" stop-opacity="1" style="stop-color:rgb(255,198,59)" />
                                    <stop offset="95.0574%" stop-opacity="1" style="stop-color:rgb(182,109,41)" />
                                    <stop offset="100%" stop-opacity="1" style="stop-color:rgb(182,109,41)" />
                                </linearGradient>
                                <path d=" M 51.099 38.254 C 45.093 39.261 44.71 45.15 44.71 45.15 L 44.71 45.15 C 44.71 45.15 48.082 41.235 53.362 44.239 L 53.362 44.239 C 53.362 44.239 49.098 42.222 45.896 44.601 L 45.896 44.601 C 46.938 44.262 48.631 44.012 50.864 44.703 L 50.864 44.703 C 53.602 45.549 54.162 47.515 54.263 48.028 L 54.263 48.028 C 55.442 49.194 55.516 50.402 55.516 50.402 L 55.516 50.402 C 53.936 45.974 49.586 47.792 49.586 47.792 L 49.586 47.792 C 54.089 50.896 49.876 55.696 42.593 57.022 L 42.593 57.022 C 35.492 58.313 33.249 62.28 33.249 62.28 L 33.249 62.28 C 33.249 62.28 38.949 58.643 46.155 62.485 L 46.155 62.485 C 54.259 66.807 61.096 65.545 65.995 59.744 L 65.995 59.744 C 65.995 59.744 60.711 62.277 53.446 59.688 L 53.446 59.688 C 52.146 59.225 50.884 58.864 49.661 58.596 L 49.661 58.596 C 49.661 58.596 47.516 58.057 44.384 58.103 L 44.384 58.103 C 44.384 58.103 46.646 57.627 50.53 58.378 L 50.53 58.378 C 55.225 57.146 59.759 55.05 60.793 49.877 L 60.793 49.877 C 62.233 42.674 56.432 38.177 52.06 38.176 L 52.06 38.176 C 51.731 38.176 51.409 38.202 51.099 38.254" fill="url(#_lgradient_4)" />
                            </g>
                        </g>
                    </g>
                </g>
            </g>
            <g>
                <clipPath id="_clipPath_x9FQ7hGxvMdH9YKp5UZXfALxqxXkj8U7">
                    <path d=" M 33.531 62.52 C 33.531 62.52 38.566 60.504 42.992 63.427 L 42.992 63.427 C 42.992 63.427 39.262 61.21 34.425 62.496 L 34.425 62.496 C 38.819 62.484 40.6 64.055 43.909 65.944 L 43.909 65.944 C 48.321 68.464 52.451 65.597 52.451 65.597 L 52.451 65.597 C 52.451 65.597 50.929 65.832 45.39 63.079 L 45.39 63.079 C 42.853 61.818 40.551 61.424 38.664 61.424 L 38.664 61.424 C 35.52 61.424 33.531 62.52 33.531 62.52" fill="rgb(255,255,255)" />
                </clipPath>
                <g clip-path="url(#_clipPath_x9FQ7hGxvMdH9YKp5UZXfALxqxXkj8U7)">
                    <g>
                        <g>
                            <g>
                                <linearGradient id="_lgradient_5" x1="0.5000040633888663" y1="9.02163545716412" x2="0.5000039482595149" y2="6.369124284727237" gradientTransform="matrix(18.92,0,0,-5.557,33.531,66.981)" gradientUnits="userSpaceOnUse">
                                    <stop offset="0%" stop-opacity="1" style="stop-color:rgb(182,109,41)" />
                                    <stop offset="6.3377%" stop-opacity="1" style="stop-color:rgb(182,109,41)" />
                                    <stop offset="38.500499999999995%" stop-opacity="1" style="stop-color:rgb(255,198,59)" />
                                    <stop offset="70.7271%" stop-opacity="1" style="stop-color:rgb(255,198,59)" />
                                    <stop offset="95.0574%" stop-opacity="1" style="stop-color:rgb(182,109,41)" />
                                    <stop offset="100%" stop-opacity="1" style="stop-color:rgb(182,109,41)" />
                                </linearGradient>
                                <path d=" M 33.531 62.52 C 33.531 62.52 38.566 60.504 42.992 63.427 L 42.992 63.427 C 42.992 63.427 39.262 61.21 34.425 62.496 L 34.425 62.496 C 38.819 62.484 40.6 64.055 43.909 65.944 L 43.909 65.944 C 48.321 68.464 52.451 65.597 52.451 65.597 L 52.451 65.597 C 52.451 65.597 50.929 65.832 45.39 63.079 L 45.39 63.079 C 42.853 61.818 40.551 61.424 38.664 61.424 L 38.664 61.424 C 35.52 61.424 33.531 62.52 33.531 62.52" fill="url(#_lgradient_5)" />
                            </g>
                        </g>
                    </g>
                </g>
            </g>
        </g>
        <g>
            <g transform="matrix(0.32,0,0,0.32,22.703,26.435)">
                <text transform="matrix(1,0,0,1,9.949,72.63)" style="font-family:'Redressed';font-weight:400;font-size:78px;font-style:normal;fill:#FFC239;stroke:none;">L</text>
            </g>
            <g>
                <clipPath id="_clipPath_74nqqjKP2dX29addp9g5yfvxGyGa6dZ3">
                    <path d=" M 31.052 20.532 C 31.052 21.063 31.146 21.561 31.304 22.018 L 31.304 22.018 L 31.275 22.056 C 29.654 24.107 27.588 25.147 25.134 25.147 L 25.134 25.147 C 23.693 25.147 22.631 24.769 22.628 24.769 L 22.628 24.769 L 22.073 24.557 C 21.853 24.141 21.563 23.74 21.19 23.385 L 21.19 23.385 C 20.021 22.272 18.472 21.915 17.292 22.358 L 17.292 22.358 C 16.905 23.561 17.339 25.091 18.508 26.202 L 18.508 26.202 C 18.814 26.495 19.149 26.733 19.496 26.92 L 19.496 26.92 L 19.83 27.701 C 19.877 27.812 20.98 30.478 19.144 34.259 L 19.144 34.259 C 17.703 37.223 16.441 40.148 16.405 43.109 L 16.405 43.109 C 16.88 43.099 17.326 43.139 17.739 43.217 L 17.739 43.217 C 17.759 40.696 18.797 37.998 20.332 34.837 L 20.332 34.837 C 22.461 30.459 21.103 27.308 21.044 27.176 L 21.044 27.176 L 20.192 25.253 L 22.155 26.003 C 22.167 26.008 23.411 26.47 25.134 26.47 L 25.134 26.47 C 27.114 26.47 29.966 25.846 32.312 22.878 L 32.312 22.878 L 32.998 22.011 L 33.682 22.878 C 36.029 25.846 38.882 26.47 40.861 26.47 L 40.861 26.47 C 42.566 26.47 43.793 26.022 43.845 26.003 L 43.845 26.003 L 45.82 25.254 L 44.949 27.18 C 44.891 27.31 43.533 30.457 45.662 34.838 L 45.662 34.838 C 47.197 37.999 48.236 40.696 48.257 43.217 L 48.257 43.217 C 48.67 43.139 49.115 43.099 49.59 43.109 L 49.59 43.109 C 49.555 40.148 48.292 37.223 46.851 34.259 L 46.851 34.259 C 45.022 30.49 46.112 27.826 46.155 27.725 L 46.155 27.725 L 46.522 26.912 C 46.863 26.726 47.193 26.491 47.495 26.202 L 47.495 26.202 C 48.663 25.091 49.098 23.561 48.711 22.358 L 48.711 22.358 C 47.529 21.915 45.981 22.272 44.811 23.385 L 44.811 23.385 C 44.438 23.742 44.147 24.143 43.926 24.56 L 43.926 24.56 L 43.385 24.761 C 43.34 24.777 42.292 25.147 40.861 25.147 L 40.861 25.147 C 38.409 25.147 36.342 24.107 34.722 22.056 L 34.722 22.056 L 34.69 22.018 C 34.848 21.56 34.943 21.061 34.943 20.531 L 34.943 20.531 C 34.943 18.918 34.135 17.55 32.996 17 L 32.996 17 C 31.86 17.551 31.052 18.92 31.052 20.532" fill="rgb(255,255,255)" />
                </clipPath>
                <g clip-path="url(#_clipPath_74nqqjKP2dX29addp9g5yfvxGyGa6dZ3)">
                    <g>
                        <g>
                            <g>
                                <linearGradient id="_lgradient_6" x1="0.4999952700876482" y1="1.0057243747174467" x2="0.49999520444804824" y2="-0.5065726216555453" gradientTransform="matrix(33.186,0,0,-26.217,16.405,43.217)" gradientUnits="userSpaceOnUse">
                                    <stop offset="0%" stop-opacity="1" style="stop-color:rgb(182,109,41)" />
                                    <stop offset="6.3377%" stop-opacity="1" style="stop-color:rgb(182,109,41)" />
                                    <stop offset="38.500499999999995%" stop-opacity="1" style="stop-color:rgb(255,198,59)" />
                                    <stop offset="70.7271%" stop-opacity="1" style="stop-color:rgb(255,198,59)" />
                                    <stop offset="95.0574%" stop-opacity="1" style="stop-color:rgb(182,109,41)" />
                                    <stop offset="100%" stop-opacity="1" style="stop-color:rgb(182,109,41)" />
                                </linearGradient>
                                <path d=" M 31.052 20.532 C 31.052 21.063 31.146 21.561 31.304 22.018 L 31.304 22.018 L 31.275 22.056 C 29.654 24.107 27.588 25.147 25.134 25.147 L 25.134 25.147 C 23.693 25.147 22.631 24.769 22.628 24.769 L 22.628 24.769 L 22.073 24.557 C 21.853 24.141 21.563 23.74 21.19 23.385 L 21.19 23.385 C 20.021 22.272 18.472 21.915 17.292 22.358 L 17.292 22.358 C 16.905 23.561 17.339 25.091 18.508 26.202 L 18.508 26.202 C 18.814 26.495 19.149 26.733 19.496 26.92 L 19.496 26.92 L 19.83 27.701 C 19.877 27.812 20.98 30.478 19.144 34.259 L 19.144 34.259 C 17.703 37.223 16.441 40.148 16.405 43.109 L 16.405 43.109 C 16.88 43.099 17.326 43.139 17.739 43.217 L 17.739 43.217 C 17.759 40.696 18.797 37.998 20.332 34.837 L 20.332 34.837 C 22.461 30.459 21.103 27.308 21.044 27.176 L 21.044 27.176 L 20.192 25.253 L 22.155 26.003 C 22.167 26.008 23.411 26.47 25.134 26.47 L 25.134 26.47 C 27.114 26.47 29.966 25.846 32.312 22.878 L 32.312 22.878 L 32.998 22.011 L 33.682 22.878 C 36.029 25.846 38.882 26.47 40.861 26.47 L 40.861 26.47 C 42.566 26.47 43.793 26.022 43.845 26.003 L 43.845 26.003 L 45.82 25.254 L 44.949 27.18 C 44.891 27.31 43.533 30.457 45.662 34.838 L 45.662 34.838 C 47.197 37.999 48.236 40.696 48.257 43.217 L 48.257 43.217 C 48.67 43.139 49.115 43.099 49.59 43.109 L 49.59 43.109 C 49.555 40.148 48.292 37.223 46.851 34.259 L 46.851 34.259 C 45.022 30.49 46.112 27.826 46.155 27.725 L 46.155 27.725 L 46.522 26.912 C 46.863 26.726 47.193 26.491 47.495 26.202 L 47.495 26.202 C 48.663 25.091 49.098 23.561 48.711 22.358 L 48.711 22.358 C 47.529 21.915 45.981 22.272 44.811 23.385 L 44.811 23.385 C 44.438 23.742 44.147 24.143 43.926 24.56 L 43.926 24.56 L 43.385 24.761 C 43.34 24.777 42.292 25.147 40.861 25.147 L 40.861 25.147 C 38.409 25.147 36.342 24.107 34.722 22.056 L 34.722 22.056 L 34.69 22.018 C 34.848 21.56 34.943 21.061 34.943 20.531 L 34.943 20.531 C 34.943 18.918 34.135 17.55 32.996 17 L 32.996 17 C 31.86 17.551 31.052 18.92 31.052 20.532" fill="url(#_lgradient_6)" />
                            </g>
                        </g>
                    </g>
                </g>
            </g>
            <g>
                <clipPath id="_clipPath_Zs31YaBjVUFKa7MBsvBnzek4gobUlL1r">
                    <path d=" M 48.247 43.57 C 48.104 48.263 44.301 52.385 33.387 57.822 L 33.387 57.822 L 32.998 58.016 L 32.608 57.822 C 21.693 52.386 17.892 48.263 17.747 43.57 L 17.747 43.57 C 17.294 43.48 16.845 43.442 16.411 43.44 L 16.411 43.44 C 16.434 44.625 16.652 45.816 17.148 47.018 L 17.148 47.018 C 18.82 51.063 23.266 54.648 32.018 59.007 L 32.018 59.007 L 32.998 59.495 L 33.978 59.007 C 42.73 54.647 47.175 51.062 48.847 47.018 L 48.847 47.018 C 49.343 45.816 49.562 44.625 49.584 43.44 L 49.584 43.44 C 49.151 43.442 48.701 43.48 48.247 43.57" fill="rgb(255,255,255)" />
                </clipPath>
                <g clip-path="url(#_clipPath_Zs31YaBjVUFKa7MBsvBnzek4gobUlL1r)">
                    <g>
                        <g>
                            <g>
                                <linearGradient id="_lgradient_7" x1="0.4999953648715203" y1="2.656274318095658" x2="0.4999952992072001" y2="1.1434077825521043" gradientTransform="matrix(33.173,0,0,-16.054,16.411,59.495)" gradientUnits="userSpaceOnUse">
                                    <stop offset="0%" stop-opacity="1" style="stop-color:rgb(182,109,41)" />
                                    <stop offset="6.3377%" stop-opacity="1" style="stop-color:rgb(182,109,41)" />
                                    <stop offset="38.500499999999995%" stop-opacity="1" style="stop-color:rgb(255,198,59)" />
                                    <stop offset="70.7271%" stop-opacity="1" style="stop-color:rgb(255,198,59)" />
                                    <stop offset="95.0574%" stop-opacity="1" style="stop-color:rgb(182,109,41)" />
                                    <stop offset="100%" stop-opacity="1" style="stop-color:rgb(182,109,41)" />
                                </linearGradient>
                                <path d=" M 48.247 43.57 C 48.104 48.263 44.301 52.385 33.387 57.822 L 33.387 57.822 L 32.998 58.016 L 32.608 57.822 C 21.693 52.386 17.892 48.263 17.747 43.57 L 17.747 43.57 C 17.294 43.48 16.845 43.442 16.411 43.44 L 16.411 43.44 C 16.434 44.625 16.652 45.816 17.148 47.018 L 17.148 47.018 C 18.82 51.063 23.266 54.648 32.018 59.007 L 32.018 59.007 L 32.998 59.495 L 33.978 59.007 C 42.73 54.647 47.175 51.062 48.847 47.018 L 48.847 47.018 C 49.343 45.816 49.562 44.625 49.584 43.44 L 49.584 43.44 C 49.151 43.442 48.701 43.48 48.247 43.57" fill="url(#_lgradient_7)" />
                            </g>
                        </g>
                    </g>
                </g>
            </g>
            <g>
                <clipPath id="_clipPath_1iOWlyNHRQ18lXBsyNbhOajsk0s8kx9U">
                    <path d=" M 14.786 36.233 C 14.786 36.684 15.151 37.051 15.603 37.051 L 15.603 37.051 C 16.054 37.051 16.421 36.684 16.421 36.233 L 16.421 36.233 C 16.421 35.781 16.054 35.416 15.603 35.416 L 15.603 35.416 C 15.151 35.416 14.786 35.781 14.786 36.233 Z " fill="rgb(255,255,255)" />
                </clipPath>
                <g clip-path="url(#_clipPath_1iOWlyNHRQ18lXBsyNbhOajsk0s8kx9U)">
                    <g>
                        <g>
                            <g>
                                <linearGradient id="_lgradient_8" x1="0.5001332288401343" y1="12.355113636363669" x2="0.5001318965517353" y2="-18.34001163562373" gradientTransform="matrix(1.635,0,0,-1.635,14.786,37.051)" gradientUnits="userSpaceOnUse">
                                    <stop offset="0%" stop-opacity="1" style="stop-color:rgb(182,109,41)" />
                                    <stop offset="6.3377%" stop-opacity="1" style="stop-color:rgb(182,109,41)" />
                                    <stop offset="38.500499999999995%" stop-opacity="1" style="stop-color:rgb(255,198,59)" />
                                    <stop offset="70.7271%" stop-opacity="1" style="stop-color:rgb(255,198,59)" />
                                    <stop offset="95.0574%" stop-opacity="1" style="stop-color:rgb(182,109,41)" />
                                    <stop offset="100%" stop-opacity="1" style="stop-color:rgb(182,109,41)" />
                                </linearGradient>
                                <path d=" M 14.786 36.233 C 14.786 36.684 15.151 37.051 15.603 37.051 L 15.603 37.051 C 16.054 37.051 16.421 36.684 16.421 36.233 L 16.421 36.233 C 16.421 35.781 16.054 35.416 15.603 35.416 L 15.603 35.416 C 15.151 35.416 14.786 35.781 14.786 36.233 Z " fill="url(#_lgradient_8)" />
                            </g>
                        </g>
                    </g>
                </g>
            </g>
            <g>
                <clipPath id="_clipPath_AlaG3Tbv8PpZjnZLrCQFNLxpMnErS9JZ">
                    <path d=" M 49.575 36.233 C 49.575 36.684 49.94 37.051 50.392 37.051 L 50.392 37.051 C 50.843 37.051 51.209 36.684 51.209 36.233 L 51.209 36.233 C 51.209 35.781 50.843 35.416 50.392 35.416 L 50.392 35.416 C 49.94 35.416 49.575 35.781 49.575 36.233 Z " fill="rgb(255,255,255)" />
                </clipPath>
                <g clip-path="url(#_clipPath_AlaG3Tbv8PpZjnZLrCQFNLxpMnErS9JZ)">
                    <g>
                        <g>
                            <g>
                                <linearGradient id="_lgradient_9" x1="0.500058811997647" y1="12.355113636363669" x2="0.5000574797092426" y2="-18.340011760368775" gradientTransform="matrix(1.634,0,0,-1.635,49.575,37.051)" gradientUnits="userSpaceOnUse">
                                    <stop offset="0%" stop-opacity="1" style="stop-color:rgb(182,109,41)" />
                                    <stop offset="6.3377%" stop-opacity="1" style="stop-color:rgb(182,109,41)" />
                                    <stop offset="38.500499999999995%" stop-opacity="1" style="stop-color:rgb(255,198,59)" />
                                    <stop offset="70.7271%" stop-opacity="1" style="stop-color:rgb(255,198,59)" />
                                    <stop offset="95.0574%" stop-opacity="1" style="stop-color:rgb(182,109,41)" />
                                    <stop offset="100%" stop-opacity="1" style="stop-color:rgb(182,109,41)" />
                                </linearGradient>
                                <path d=" M 49.575 36.233 C 49.575 36.684 49.94 37.051 50.392 37.051 L 50.392 37.051 C 50.843 37.051 51.209 36.684 51.209 36.233 L 51.209 36.233 C 51.209 35.781 50.843 35.416 50.392 35.416 L 50.392 35.416 C 49.94 35.416 49.575 35.781 49.575 36.233 Z " fill="url(#_lgradient_9)" />
                            </g>
                        </g>
                    </g>
                </g>
            </g>
        </g>
    </g>
</svg>